<svg xmlns="http://www.w3.org/2000/svg" fill="currentColor" viewBox="0 0 1024 1024">
  <path d="M852.04191062 895.99919234C842.51091765 895.99919234 832.99258092 892.31707005 825.79286748 884.97729422L145.70893154 190.44752518C131.50609825 175.95359837 131.75078559 152.67539679 146.25652488 138.49618849 160.73863919 124.28238648 184.01684079 124.55069878 198.20701783 139.02100061L878.29095376 833.53895715C892.49294329 848.03204021 892.24825597 871.31108554 877.74251667 885.48945008 870.60102193 892.50353866 861.32737252 895.99919234 852.04191062 895.99919234" />
  <path d="M171.97063091 895.99919234C181.50078014 895.99919234 191.01996062 892.31707005 198.21967407 884.97729422L878.29095376 190.45933767C892.49378703 175.96541086 892.24909972 152.68720929 877.74420417 138.50800098 863.26208984 124.29419897 839.98388826 124.56166753 825.79286748 139.03196935L145.70977529 833.53980091C131.50694201 848.03288397 131.75162934 871.3119293 146.25736863 885.49029384 153.39886337 892.50438242 162.68516901 896.00003609 171.97063091 896.00003609" />
</svg>
