<svg xmlns="http://www.w3.org/2000/svg" fill="currentColor" class="icon" viewBox="0 0 1024 1024">
  <path d="M400.84231733 128.00000017H825.26371081A70.7372147 70.7372147 0 0 1 895.99997814 198.73626751V623.15766099A70.7372147 70.7372147 0 0 1 825.26371081 693.89487569H400.84231733A70.7372147 70.7372147 0 0 1 330.10510262 623.15766099V198.73626751A70.7372147 70.7372147 0 0 1 400.84231733 128.00000017M400.84231733 188.63162781A10.10558706 10.10558706 0 0 0 390.73673026 198.73626751V623.15766099A10.10558706 10.10558706 0 0 0 400.84231733 633.26324805H825.26371081A10.10558706 10.10558706 0 0 0 835.3683505 623.15766099V198.73626751A10.10558706 10.10558706 0 0 0 825.26371081 188.63162781ZM633.26324082 754.52650333A30.31581382 30.31581382 0 0 1 693.89486847 754.52650333V825.26371804A70.7372147 70.7372147 0 0 1 623.15765376 895.99998537H198.73626028A70.7372147 70.7372147 0 0 1 127.99999295 825.26371804V400.84232455A70.7372147 70.7372147 0 0 1 198.73626028 330.10510985H269.47347498A30.31581382 30.31581382 0 0 1 269.47347498 390.73673749H198.73626028A10.10558706 10.10558706 0 0 0 188.63162059 400.84232455V825.26371804A10.10558706 10.10558706 0 0 0 198.73626028 835.36835773H623.15765376A10.10558706 10.10558706 0 0 0 633.26324082 825.26371804Z" />
</svg>
