<svg xmlns="http://www.w3.org/2000/svg" fill="currentColor" class="icon" viewBox="0 0 1024 1024">
  <path d="M863.29894397 285.61381053H669.9884136V240.88883768C669.9884136 186.61982043 625.82447888 142.45588572 571.55546163 142.45588572H440.23416212C385.96514487 142.45588572 341.80121015 186.61982043 341.80121015 240.88883768V285.61381053H160.74854054C142.64363908 285.61381053 127.99999565 300.25745395 127.99999565 318.36235542S142.64363908 351.11090031 160.74854054 351.11090031H214.36240414V747.88273073C214.36240414 821.61355763 274.33957317 881.54412577 348.02379918 881.54412577H664.42097822C738.15271885 881.54412577 798.08237326 821.56695674 798.08237326 747.88273073V351.11090031H863.25142934C881.35724455 351.11090031 895.99997423 336.46725688 895.99997423 318.36235542S881.40384544 285.61381053 863.29894397 285.61381053M407.29829994 240.88883768C407.29829994 222.73642159 422.08265977 207.9529755 440.23416212 207.9529755H571.60297626C589.75447861 207.9529755 604.5379247 222.73733533 604.5379247 240.88883768V285.61381053H407.29829994ZM732.63188436 747.83612985C732.63188436 785.45035559 702.03520396 815.99952136 664.46849285 815.99952136H348.07040007C310.45617433 815.99952136 279.90700855 785.4037547 279.90700855 747.83612985V351.11090031H732.67848525V747.83612985Z" />
  <path d="M418.24585341 451.04056311C400.14095194 451.04056311 385.49730851 465.68420654 385.49730851 483.78910801V684.11718371C385.49730851 702.22208518 400.14095194 716.8657286 418.24585341 716.8657286S450.9943983 702.22208518 450.9943983 684.11718371V483.78910801C450.9943983 465.68420654 436.35075487 451.04056311 418.24585341 451.04056311M590.50283404 451.04056311C572.39793257 451.04056311 557.75428914 465.68420654 557.75428914 483.78910801V684.11718371C557.75428914 702.22208518 572.39793257 716.8657286 590.50283404 716.8657286S623.25137893 702.22208518 623.25137893 684.11718371V483.78910801C623.25137893 465.68420654 608.56204836 451.04056311 590.50283404 451.04056311" />
</svg>
