<svg xmlns="http://www.w3.org/2000/svg" fill="currentColor" class="icon" viewBox="0 0 1024 1024">
  <path d="M663.13254874 544.33953512C586.4492057 544.33953512 524.09556097 606.69317985 524.09556097 683.37652289S586.44834856 822.4143678 663.1316916 822.4143678 802.16953651 760.06072306 802.16953651 683.37738003 739.81589177 544.33953512 663.13254874 544.33953512M663.13254874 776.32670492C612.00917719 776.32670492 570.56979485 734.88646543 570.56979485 683.76395103S612.00917719 591.20119713 663.13254874 591.20119713 755.69530263 632.64143662 755.69530263 683.76395103C755.69530263 734.49903729 714.254206 776.32670492 663.13254874 776.32670492M886.5988709 854.55976051L801.39468023 783.29784C791.32497717 775.16527764 776.60870787 776.71413306 768.47528838 786.39640797 760.34186888 796.46611103 761.89158143 811.18323747 771.57385635 819.31579982L856.77804702 890.57857748C861.03804227 894.06371645 866.0728938 896 871.49517346 896 878.07802326 896 884.66258734 893.28886017 889.69743887 887.4800095 897.83085837 877.41030645 896.28114581 862.30575187 886.5988709 854.55976051" />
  <path d="M523.32070469 849.52490898H191.0239325C182.503942 849.52490898 175.53280692 842.5537739 175.53280692 834.03292626V189.96793041C175.53280692 181.44708277 182.503942 174.47594769 191.02478964 174.47594769H604.65147111V311.5766519C604.65147111 324.35749479 615.10860231 334.81376884 627.88858805 334.81376884H794.42440229V557.50780615C794.42440229 570.28779189 804.88153348 580.74492308 817.66151922 580.74492308S840.8994933 570.28779189 840.8994933 557.50780615V315.44921901C840.8994933 309.25208306 838.57578161 303.05580426 833.92835822 298.79495187L663.51997688 134.58370647C659.25998163 130.32371122 653.45027382 127.99999953 647.25399502 127.99999953H191.02478964C156.94311337 127.99999953 129.0577159 155.885397 129.0577159 189.96621612V834.03206912C129.0577159 868.11374539 156.94311337 895.99914286 191.02478964 895.99914286H523.32070469C536.10069044 895.99914286 546.55782163 885.54201167 546.55782163 872.76202592S536.10069044 849.52405184 523.32070469 849.52405184M651.12656213 187.25593343L756.85758705 288.33867782H651.12656213Z" />
  <path d="M263.83556557 392.90827546H441.98908113C454.76992401 392.90827546 465.22619807 382.45114427 465.22619807 369.67115853S454.76992401 346.43404159 441.98908113 346.43404159H263.83556557C251.05472268 346.43404159 240.59844863 356.89031564 240.59844863 369.67115853S251.05472268 392.90827546 263.83556557 392.90827546M534.93926316 470.36647478C534.93926316 457.58648903 524.48213197 447.12935784 511.70214622 447.12935784H263.83556557C251.05472268 447.12935784 240.59844863 457.58648903 240.59844863 470.36647478S251.05472268 493.60359171 263.83556557 493.60359171H511.70214622C524.48213197 493.60359171 534.93926316 483.14646052 534.93926316 470.36647478M503.95615486 571.06264817C503.95615486 558.28180528 493.49902367 547.82553123 480.71903793 547.82553123H263.83470842C251.05386554 547.82553123 240.59759149 558.28180528 240.59759149 571.06264817S251.05386554 594.29976511 263.83470842 594.29976511H480.71732364C493.49816653 594.29976511 503.95444058 583.84263391 503.95444058 571.06264817M263.83470842 648.90827562C251.05386554 648.90827562 240.59759149 659.36540681 240.59759149 672.14539256S251.05386554 695.38250949 263.83470842 695.38250949H441.98908113C454.76992401 695.38250949 465.22619807 684.9253783 465.22619807 672.14539256S454.76992401 648.90827562 441.98908113 648.90827562Z" />
</svg>
