<svg xmlns="http://www.w3.org/2000/svg" fill="currentColor" class="icon" viewBox="0 0 1024 1024">
  <path d="M364.03048662 369.57999603V157.65547814A29.43979411 29.43979411 0 0 1 393.55528014 128.00268553H866.34197365A29.43979411 29.43979411 0 0 1 895.61076896 157.65547814L895.99476627 622.03623046A29.43979411 29.43979411 0 0 1 866.81097037 652.03102067L659.58041966 653.61000965V698.49469573H601.04182906V654.03600665L581.84196333 654.20700546A29.65279262 29.65279262 0 0 1 581.84196333 594.90042022L837.54217507 592.76743514V187.18027166H422.22707962L422.61107693 429.69657559A29.2697953 29.2697953 0 1 1 364.03048662 429.69657559V426.92359498H323.11377278V369.57999603H364.07348632ZM323.11377278 838.6537155H453.20286299V895.99731447H323.11377278ZM590.71690127 764.37123501H648.18849933V829.65077849A65.61954108 65.61954108 0 0 1 583.16495408 895.35731894H518.73840466V838.05671969H590.71690127ZM258.08922754 838.05771968V895.87031535H193.02368258A65.61954108 65.61954108 0 0 1 128.00013733 830.1197752V764.37123501H186.06973121V838.05671969H258.13222723ZM184.74674046 501.20607549L128.00013733 501.07707639V435.3285362A65.61954108 65.61954108 0 0 1 193.02368258 369.57899604H258.13322723L255.99924215 428.37458486H184.74674046ZM128.00013733 566.95461566H186.53872793V698.57869513H128.00013733ZM485.373638 712.40359845A29.43979411 29.43979411 0 0 1 455.25084866 742.05739107L289.74900612 736.63842897A28.99979719 28.99979719 0 0 1 269.35514875 727.25149461 29.77979173 29.77979173 0 0 1 261.41920425 706.04664292L266.83716636 538.02681797A29.2697953 29.2697953 0 1 1 325.29075755 539.47680784L322.17577934 635.47613646 569.47004986 400.89677702A29.0127971 29.0127971 0 0 1 610.85676042 402.17676806 29.86679112 29.86679112 0 0 1 609.57676937 444.07547504L362.23849916 678.9108327 457.04283613 682.02581091A29.43979411 29.43979411 0 0 1 485.373638 712.40359845" />
</svg>
