<svg xmlns="http://www.w3.org/2000/svg" fill="currentColor" viewBox="0 0 1024 1024"><path d="M611.8173 540.4753H810.9404V597.3676H611.8173ZM611.8173 426.6895H810.9404V483.5819H611.8173ZM611.8173 654.261H810.9404V711.1534H611.8173ZM100.9224 325.3645V780.5065H556.1214V325.3645ZM390.4487 682.6512L328.5499 590.0857 300.6712 631.7873H328.5499V682.6501H188.5945L290.2049 532.965 200.2013 398.2434H275.3567L328.608 476.5853 381.8023 398.2434H456.8995L366.7818 532.909 468.4492 682.6501H390.4498Z" /><path d="M880.1816 236.6123L771.8578 128.2315C748.2469 104.6776 701.7089 85.3333 668.3133 85.3333H304.3155C270.9199 85.3333 243.668 112.6434 243.668 145.9808V268.414H292.1972V145.9808C292.1972 139.3816 297.8304 133.8636 304.3725 133.8636H668.3704C671.9532 133.8636 676.1079 134.318 680.4876 135.172V327.9814H873.3529C874.2069 332.36 874.6614 356.3134 874.6614 360.0125V878.0193C874.6614 884.6185 869.0281 890.1365 862.486 890.1365H304.3133C297.7141 890.1365 292.1379 884.5032 292.1379 878.0193V837.3417H243.6087V878.0193C243.6087 911.4148 270.8606 938.6667 304.2573 938.6667H862.43C895.8256 938.6667 923.0775 911.4148 923.0775 878.0193V360.0685C923.1357 326.673 903.7903 260.165 880.1794 236.6112ZM728.9608 279.5082V155.5393C732.2604 157.8137 735.1045 160.2044 737.4381 162.593L845.7619 270.9167C848.1515 273.3063 850.5411 276.2064 852.8737 279.506H728.9619Z" /></svg>