<svg xmlns="http://www.w3.org/2000/svg" fill="currentColor" viewBox="0 0 1024 1024"><path d="M85.3333 845.8418L582.9466 933.5765V90.4234L85.3333 180.4078ZM206.8122 345.9789L279.6995 341.9296 328.7409 433.7136 382.7315 336.5306 457.8684 332.0313 368.784 503.0016 461.0179 677.5711 380.4819 673.0719 325.1416 556.9921 271.6009 667.2229 200.0634 662.2738 284.6486 504.3513ZM677.4302 556.5422C681.9294 552.9428 686.8785 549.7934 691.8277 547.0939H629.7385V574.5391H657.1837C663.4826 568.2402 670.2314 562.3912 677.4302 556.5422M928.4864 682.9702V208.3029C928.4864 198.8545 921.2877 191.6558 911.8393 191.6558H630.1884V249.2458H713.4239V328.432H630.1884V359.0266H713.4239V437.7629H630.1884V469.2574H713.4239V536.7457C722.4223 533.1463 731.4208 530.4468 740.8691 528.6471V469.2574H876.2955V547.0939H841.6516C852.8996 553.8427 865.0475 560.5915 880.3448 574.989 911.8393 615.482 927.5866 640.2276 927.5866 682.0704M740.8691 248.7958H876.2955V327.982H740.8691ZM740.8691 359.0266H876.2955V437.7629H740.8691Z" /><path d="M909.5897 885.4349C901.9411 885.4349 894.7423 882.2855 889.3433 877.3363L851.5498 839.5429C826.3542 856.19 797.5592 865.1884 766.9646 865.1884 718.373 865.1884 674.2807 843.1423 645.0358 804.449 595.0945 737.4107 608.5922 642.0273 675.6305 591.6361 701.7259 572.2895 734.1203 561.4914 766.5147 561.4914 807.0076 561.4914 845.2509 577.2386 874.0459 606.0336S918.5882 673.0719 918.5882 713.5649C918.5882 743.7096 909.5897 773.4044 892.9426 798.1501L930.2861 835.4936C941.5342 847.1916 941.5342 866.0883 929.8362 877.3363 924.4371 882.7354 917.2384 885.4349 909.5897 885.4349M766.9646 600.1846C704.4255 600.1846 653.5843 651.0258 653.5843 713.5649S704.4255 826.9451 766.9646 826.9451 880.3448 776.104 880.3448 713.5649 829.5037 600.1846 766.9646 600.1846V591.1862Z" /></svg>