<svg xmlns="http://www.w3.org/2000/svg" fill="currentColor" viewBox="0 0 1024 1024"><path d="M701.5255 731.1702L842.2741 891.2209C851.2469 905.6192 846.9692 924.7126 832.1535 933.9984 817.7552 942.9713 798.2445 938.6935 789.2716 923.8779L655.3048 771.861C624.2128 791.6848 587.0694 803.1617 547.4219 803.1617 436.6176 803.1617 346.3674 713.5375 346.3674 602.8375 346.3674 492.2419 436.3046 402.5133 547.4219 402.5133 658.6436 402.5133 748.4764 492.1375 748.4764 602.8375 748.3721 651.4579 730.7394 696.1135 701.5255 731.1702M547.4219 740.8734C624.0042 740.8734 686.0838 678.8981 686.0838 602.6288 686.0838 526.2552 624.0042 464.5929 547.4219 464.5929S408.76 526.5682 408.76 602.6288 470.944 740.8734 547.4219 740.8734M547.4219 740.8734" /><path d="M820.2593 655.5269V173.0795C820.2593 158.2639 810.1387 147.413 799.2878 147.413H224.3991C213.5482 147.413 203.4277 158.2639 203.4277 173.3925V849.6953C203.4277 864.511 213.5482 875.6749 224.3991 875.6749H604.9108C622.2305 875.6749 636.0027 889.7602 636.0027 906.7669 636.0027 924.0866 621.9175 937.7545 604.9108 937.7545H224.5035C177.9698 937.7545 141.1394 897.794 141.1394 849.7997V173.2882C141.1394 125.5025 177.9698 85.3333 224.5035 85.3333H799.4965C846.0301 85.3333 882.8606 125.2938 882.8606 172.8708V655.3183C882.8606 672.638 868.7753 686.4103 851.7686 686.4103S820.2593 672.4293 820.2593 655.5269M820.2593 655.5269" /><path d="M373.0772 229.212H650.7141C668.0338 229.212 681.806 243.2973 681.806 260.304 681.806 277.6237 667.7207 291.396 650.7141 291.396H373.0772C355.7575 291.396 341.9853 277.3107 341.9853 260.304 342.0896 243.4017 355.8619 229.212 373.0772 229.212M373.0772 229.212" /></svg>