<svg xmlns="http://www.w3.org/2000/svg" fill="currentColor" viewBox="0 0 1024 1024">
  <path d="M513.85645005 820.69252757C343.01605808 820.69252757 204.05188472 681.72835421 204.05188472 510.88796225S343.01605808 201.08339693 513.85645005 201.08339693 823.66101537 340.04757028 823.66101537 510.88796225 684.69684201 820.69252757 513.85645005 820.69252757M513.85645005 252.73094104C371.50290662 252.73094104 255.69942883 368.53441882 255.69942883 510.88796225S371.58360591 769.04498346 513.85645005 769.04498346 772.01347126 653.24150567 772.01347126 510.88796225 656.20999348 252.73094104 513.85645005 252.73094104" />
  <path d="M511.95712586 128.04287039C527.13363564 128.04287039 539.39488367 140.30411841 539.39488367 155.48062819V320.02143203C539.39488367 335.19794181 527.13363564 347.45918982 511.95712586 347.45918982S484.51936805 335.19794181 484.51936805 320.02143203V155.48062819C484.51936805 140.30411841 496.86635907 128.04287039 511.95712586 128.04287039M511.95712586 676.54079749C527.13363564 676.54079749 539.39488367 688.80204551 539.39488367 703.97855529V868.51935912C539.39488367 883.69586891 527.13363564 895.95711693 511.95712586 895.95711693S484.51936805 883.69586891 484.51936805 868.51935912V703.97855529C484.51936805 688.8877885 496.86635907 676.54079749 511.95712586 676.54079749M895.99999212 511.99999366C895.99999212 527.17650344 883.7387441 539.43775146 868.56223432 539.43775146H704.02143048C688.8449207 539.43775146 676.58367269 527.17650344 676.58367269 511.99999366S688.8449207 484.56223585 704.02143048 484.56223585H868.56223432C883.7387441 484.56223585 895.99999212 496.82348387 895.99999212 511.99999366M347.41632203 511.99999366C347.41632203 527.17650344 335.15507401 539.43775146 319.97856422 539.43775146H155.43776039C140.2612506 539.43775146 128.00000259 527.17650344 128.00000259 511.99999366S140.2612506 484.56223585 155.43776039 484.56223585H319.97856422C335.15507401 484.56223585 347.41632203 496.82348387 347.41632203 511.99999366M566.83264146 511.99999366C566.83264146 542.26727023 542.31014543 566.87550927 511.95712586 566.87550927 481.68984928 566.87550927 457.08161025 542.35301323 457.08161025 511.99999366 457.08161025 481.73271708 481.60410629 457.12447805 511.95712586 457.12447805S566.83264146 481.73271708 566.83264146 511.99999366" />
</svg>
