<svg xmlns="http://www.w3.org/2000/svg" fill="currentColor" class="icon" viewBox="0 0 1024 1024">
  <path d="M410.55048296 203.12372199H198.63834992A70.39456169 70.39456169 0 0 0 128.00042039 273.76082374V697.58508981C128.00042039 736.32941554 159.89319641 768.22219156 198.63834992 768.22219156H763.7368195C802.48197301 768.22219156 834.37474903 736.32941554 834.37474903 697.58508981V344.39792549A70.63710175 70.63710175 0 0 0 763.7368195 273.76082374H481.18758471Z" />
  <path d="M513.32786748 564.78654385H598.16308214L538.05039781 504.67468729A41.57120047 41.57120047 0 0 1 496.55121436 462.92799709 41.49918346 41.49918346 0 0 1 538.05039781 421.42798585C561.18441493 421.42798585 579.79708802 440.04148672 579.79708802 462.92799709L639.90977235 523.03985364V438.20463897A41.74503464 41.74503464 0 0 1 639.90977235 379.46938351 41.07453141 41.07453141 0 0 1 698.43311569 379.46938351 41.74503464 41.74503464 0 0 1 698.43311569 438.20463897V523.03985364L758.75688437 462.92799709A41.53477808 41.53477808 0 0 1 841.75607907 462.92799709C841.75607907 486.06118642 823.17817282 504.67468729 800.25689562 504.67468729L740.14421128 564.78654385H824.97942595A41.74503464 41.74503464 0 0 1 883.75027603 564.78654385 41.07453141 41.07453141 0 0 1 883.75027603 623.30988718 41.74503464 41.74503464 0 0 1 824.97942595 623.30988718H740.14421128L800.25689562 683.63448364C823.21376743 683.63448364 841.79167369 701.99964999 841.79167369 725.16926172A41.49918346 41.49918346 0 0 1 800.25689562 766.66844518 41.39322739 41.39322739 0 0 1 758.75688437 725.16926172L698.43311569 665.05657739V749.89179206A41.74503464 41.74503464 0 0 1 698.43311569 808.62704752 41.07453141 41.07453141 0 0 1 639.90977235 808.62704752 41.74503464 41.74503464 0 0 1 639.90977235 749.89179206V665.05657739L579.79708802 725.16926172C579.79708802 748.05577209 561.18441493 766.66844518 538.05039781 766.66844518A41.53477808 41.53477808 0 0 1 538.05039781 683.66925048L598.16308214 623.30988718H513.32786748A41.74503464 41.74503464 0 0 1 454.59261201 623.30988718 41.07453141 41.07453141 0 0 1 454.59261201 564.78654385 41.74503464 41.74503464 0 0 1 513.32786748 564.78654385"
    fill="#ED8357" />
</svg>
