<svg xmlns="http://www.w3.org/2000/svg" fill="currentColor" class="icon" viewBox="0 0 1024 1024">
  <path d="M840.80614994 580.43522536A27.5969198 27.51121508 0 1 0 895.99998954 580.43522536 27.5969198 27.51121508 0 1 0 840.80614994 580.43522536" />
  <path d="M868.40306974 662.54034699C853.1476296 662.54034699 840.80614994 674.88182665 840.80614994 690.05156207V759.21527101C840.80614994 789.46903712 816.20889534 814.06629173 785.95512922 814.06629173H238.04485508C207.79108897 814.06629173 183.19383437 789.46903712 183.19383437 759.21527101V265.81319871C183.19383437 235.55943259 207.79108897 210.96217799 238.04485508 210.96217799H428.7378568L499.61566013 333.77704157C505.27217164 343.54737963 516.07096635 348.51825338 526.61264689 347.31838731H785.8694245C816.12319062 347.31838731 840.72044522 371.91564191 840.72044522 402.16940802V470.73318392C840.72044522 485.90291934 853.06192488 498.244399 868.31736502 498.244399S895.91428482 485.90291934 895.91428482 470.73318392C895.91428482 470.04754616 895.91428482 469.3619084 895.8285801 468.67627064V402.25511274C895.8285801 354.94610737 865.91763286 314.66488903 823.92232013 299.23803946V298.38099226C823.92232013 239.93037331 776.09908644 192.10713962 717.64846749 192.10713962H481.18914536L468.50484682 170.08102661C462.16269755 159.02511775 453.07799724 156.19686199 445.10745829 156.36827143L445.02175357 156.28256671H237.7020362C177.10879926 156.28256671 127.99999477 205.3913712 127.99999477 265.98460815V758.01540493C127.99999477 818.60864188 177.10879926 867.71744637 237.7020362 867.71744637H786.21224338C846.80548033 867.71744637 895.91428482 818.60864188 895.91428482 758.01540493V692.10847535C895.99998954 691.42283759 895.99998954 690.73719983 895.99998954 690.05156207 895.99998954 674.88182665 883.65850988 662.54034699 868.40306974 662.54034699M713.36323149 246.7867509C740.44592297 246.7867509 763.07196902 266.67024591 767.44290973 292.55307131H539.21124071L512.81418699 246.7867509Z" />
</svg>
