<svg xmlns="http://www.w3.org/2000/svg" fill="currentColor" class="icon" viewBox="0 0 1024 1024">
  <path d="M288 896C270.4 896 256 881.6 256 864V768H160C142.4 768 128 753.6 128 736S142.4 704 160 704H288C305.6 704 320 718.4 320 736V864C320 881.6 305.6 896 288 896M288 320H160C142.4 320 128 305.6 128 288S142.4 256 160 256H256V160C256 142.4 270.4 128 288 128S320 142.4 320 160V288C320 305.6 305.6 320 288 320M736 896C718.4 896 704 881.6 704 864V736C704 718.4 718.4 704 736 704H864C881.6 704 896 718.4 896 736S881.6 768 864 768H768V864C768 881.6 753.6 896 736 896M864 320H736C718.4 320 704 305.6 704 288V160C704 142.4 718.4 128 736 128S768 142.4 768 160V256H864C881.6 256 896 270.4 896 288S881.6 320 864 320" />
</svg>
