<svg xmlns="http://www.w3.org/2000/svg" fill="currentColor" class="icon" viewBox="0 0 1024 1024">
  <path d="M288 896H160C142.4 896 128 881.6 128 864V736C128 718.4 142.4 704 160 704S192 718.4 192 736V832H288C305.6 832 320 846.4 320 864S305.6 896 288 896M160 320C142.4 320 128 305.6 128 288V160C128 142.4 142.4 128 160 128H288C305.6 128 320 142.4 320 160S305.6 192 288 192H192V288C192 305.6 177.6 320 160 320M864 896H736C718.4 896 704 881.6 704 864S718.4 832 736 832H832V736C832 718.4 846.4 704 864 704S896 718.4 896 736V864C896 881.6 881.6 896 864 896M864 320C846.4 320 832 305.6 832 288V192H736C718.4 192 704 177.6 704 160S718.4 128 736 128H864C881.6 128 896 142.4 896 160V288C896 305.6 881.6 320 864 320" />
</svg>
