<svg xmlns="http://www.w3.org/2000/svg" fill="currentColor" class="icon" viewBox="0 0 1024 1024">
  <path d="M194.78175446 478.6098074H862.58751698C872.33748111 478.6098074 880.35115027 481.74849449 886.62852443 487.95908808 892.83911802 494.23646225 895.97780511 502.2501314 895.97780511 512.00009553A32.52422753 32.52422753 0 0 1 886.62852443 536.04110298 32.52422753 32.52422753 0 0 1 862.58751698 545.39038366H194.78175446A32.52422753 32.52422753 0 0 1 170.74074701 536.04110298 32.52422753 32.52422753 0 0 1 161.39146633 512.00009553C161.39146633 502.2501314 164.53015342 494.23646225 170.74074701 487.95908808A32.52422753 32.52422753 0 0 1 194.78175446 478.6098074M208.33821144 512.00009553L485.87828634 788.47168121Q495.2943476 798.98962197 495.2943476 812.51268867A32.0546766 32.0546766 0 0 1 485.34404173 835.95267093 32.0546766 32.0546766 0 0 1 461.90405947 845.90297679 34.85111323 34.85111323 0 0 1 437.86305202 836.55369612L137.35045888 536.04110298A34.85111323 34.85111323 0 0 1 128.00117821 512.00009553C128.00117821 502.98471774 131.13986529 494.97104859 137.35045888 487.95908808L437.86305202 187.44649494A34.85111323 34.85111323 0 0 1 461.90405947 178.09721427 32.0546766 32.0546766 0 0 1 485.34404173 187.98073955 32.0546766 32.0546766 0 0 1 495.2943476 211.4875024 34.85111323 34.85111323 0 0 1 485.94506692 235.52850985L208.27143086 512.00009553Z" />
</svg>
