<svg xmlns="http://www.w3.org/2000/svg" fill="currentColor" class="icon" viewBox="0 0 1024 1024">
  <path d="M543.2669692 782.68849505V159.28766324A30.45598218 30.45598218 0 0 0 534.51221782 136.77544542 30.45598218 30.45598218 0 0 0 512 128.02069404 30.45598218 30.45598218 0 0 0 489.48778218 136.77544542 30.45598218 30.45598218 0 0 0 480.7330308 159.28766324V782.68849505L253.10949506 540.36948379A30.89567394 30.89567394 0 0 0 230.59727724 530.6141894 28.76561166 28.76561166 0 0 0 208.58533093 540.80722136 33.31886405 33.31886405 0 0 0 199.33030805 563.75717675C199.33030805 572.26179237 202.26940315 580.01600073 208.08505942 587.26993758L489.48778218 886.24469702A30.89567394 30.89567394 0 0 0 512 895.99999141 30.89567394 30.89567394 0 0 0 534.51221782 886.24469702L815.91494058 587.26993758A36.26968427 36.26968427 0 0 0 824.66969195 563.81971068 33.31886405 33.31886405 0 0 0 815.35213513 540.86975529 28.76561166 28.76561166 0 0 0 793.40272276 530.55165546 30.89567394 30.89567394 0 0 0 770.89050494 540.36948379Z" />
</svg>
