<svg xmlns="http://www.w3.org/2000/svg" fill="currentColor" class="icon" viewBox="0 0 1024 1024">
  <path d="M543.25859755 241.28199705V865.78910212A30.26099391 30.26099391 0 0 1 512.06649614 895.98358835 30.26099391 30.26099391 0 0 1 480.80788704 865.78910212V241.28199705L252.28750227 484.43407119A27.79813142 27.79813142 0 0 1 230.4064759 493.81165392 28.73339566 28.73339566 0 0 1 208.05989579 483.90200976 33.91891625 33.91891625 0 0 1 199.21437449 460.55781445C199.21437449 451.5792778 202.3402354 443.59835633 208.52544954 436.61505004L490.18546977 137.3304949A27.79813142 27.79813142 0 0 1 511.99998846 128.01941985C520.97852511 128.01941985 528.29436979 131.14528076 533.81450714 137.3304949L815.47452737 436.61505004C821.65974151 443.59835633 824.78560242 451.5792778 824.78560242 460.55781445A33.91891625 33.91891625 0 0 1 815.94008113 483.90200976 28.13066982 28.13066982 0 0 1 794.12556244 493.81165392 30.5935323 30.5935323 0 0 1 771.77898232 484.50057887L543.25859755 241.21548937Z" />
</svg>
