<svg xmlns="http://www.w3.org/2000/svg" fill="currentColor" class="icon" viewBox="0 0 1024 1024">
  <path d="M782.27151342 478.60978594H161.41239303A32.52423292 32.52423292 0 0 0 137.37138159 487.95906817 32.52423292 32.52423292 0 0 0 128.02209937 512.00007961C128.02209937 521.75004536 131.16078697 529.76371584 137.37138159 536.04109105 143.6487568 542.25168567 151.66242728 545.39037327 161.41239303 545.39037327H782.27151342L538.05490556 788.47171115A34.85111901 34.85111901 0 0 0 528.70562333 812.51272258C528.70562333 821.52810187 532.0446527 829.34143059 538.65593084 835.95270874A32.05468192 32.05468192 0 0 0 562.095917 845.90301625 34.85111901 34.85111901 0 0 0 586.13692843 836.55373402L886.64957141 536.04109105A34.85111901 34.85111901 0 0 0 895.99885364 512.00007961 34.85111901 34.85111901 0 0 0 886.64957141 487.95906817L586.13692843 187.4464252A34.85111901 34.85111901 0 0 0 562.095917 178.09714297 32.05468192 32.05468192 0 0 0 538.65593084 187.98066989 32.05468192 32.05468192 0 0 0 528.70562333 211.48743663C528.70562333 220.50281592 531.84431094 228.5164864 538.05490556 235.52844807Z" />
</svg>
