<svg xmlns="http://www.w3.org/2000/svg" fill="currentColor" class="icon" viewBox="0 0 1025 1024">
  <path d="M581.64455307 339.35335196C615.80024441 339.35335196 643.48812849 367.04123603 643.48812849 401.19692737V792.87290503C643.48812849 827.02859637 615.80024441 854.71648045 581.64455307 854.71648045H189.96857542C155.81288408 854.71648045 128.125 827.02859637 128.125 792.87290503V401.19692737C128.125 367.04123603 155.81288408 339.35335196 189.96857542 339.35335196ZM554.15851955 401.19692737H217.45460894C202.42662011 401.19692737 190.21509078 413.25814246 189.96857542 428.22772346V765.38687151C189.96857542 780.41486034 202.0297905 792.62638966 216.99937151 792.87290503H554.15851955C569.18650838 792.87290503 581.39803771 780.81168994 581.64455307 765.84210894V428.68296089C581.64455307 413.50293994 569.3385405 401.19692737 554.15851955 401.19692737M749.13756983 622.80307263V684.64664804H670.11522346V622.80307263ZM896.875 591.02234637V622.80307263C896.875 656.95876397 869.18711592 684.64664804 835.03142458 684.64664804H793.8023743V622.80307263H807.54539106C822.57337989 622.80307263 834.78490922 610.74185754 835.03142458 595.77227654V591.02234637ZM896.875 458.74581006V537.76815642H835.03142458V458.74581006ZM896.875 335.05865922V414.08100559H835.03142458V335.05865922ZM484.58449721 169.28351955V231.12709497H470.84148045C455.81349162 231.12709497 443.60196229 243.18831006 443.35544693 258.15789106V298.98324022H381.51187151V231.12709497C381.51187151 196.97140363 409.19975559 169.28351955 443.35544693 169.28351955ZM835.03142458 169.28351955C869.18711592 169.28351955 896.875 196.97140363 896.875 231.12709497V281.80446927H835.03142458V258.61312849C835.03142458 243.58513966 822.9702095 231.37361034 808.00062849 231.12709497H793.8023743V169.28351955ZM616.86103352 169.28351955V231.12709497H536.9797486V169.28351955ZM740.54818436 169.28351955V231.12709497H661.52583799V169.28351955Z" />
</svg>
