<svg xmlns="http://www.w3.org/2000/svg" fill="currentColor" viewBox="0 0 1024 1024"><path d="M828.1599 639.2755H596.4028V690.61H686.5829V848.4242H737.9175V690.6108H828.1599Z" /><path d="M531.8288 526.4886A25.666 25.666 0 0 0 506.2235 552.1554V912.999A25.666 25.666 0 0 0 531.8288 938.6667H892.6724A25.666 25.666 0 0 0 918.3384 912.999V552.1546A25.666 25.666 0 0 0 892.6724 526.4877ZM557.4957 887.3322V577.8222H867.0039V887.3322Z" /><path d="M174.3578 154.0295V857.0427H396.6845A34.3485 34.3485 0 1 1 396.6845 925.7389H171.2354C135.0136 925.7389 105.6616 896.387 105.6616 860.1652V150.9071C105.6616 114.6853 135.0136 85.3333 171.2354 85.3333H647.1123C664.1615 85.3333 680.6488 92.0154 692.8893 103.9433L843.3982 250.8909C856.0134 263.1945 863.1958 280.1182 863.1958 297.7915V408.8929A34.3485 34.3485 0 1 1 794.4996 408.8929V366.4886H642.6809C606.4583 366.4886 577.1072 337.1366 577.1072 300.9148V154.0295H174.2947ZM794.4987 297.105L645.8017 154.0295V297.7915H794.4356V297.1042Z" /><path d="M387.0039 205.0516A30.1656 30.1656 0 0 0 366.6453 197.3074 27.6639 27.6639 0 0 0 350.1579 202.5541V202.6165C340.6651 209.611 337.3556 221.9761 336.3567 233.4669A166.1544 166.1544 0 0 0 338.4793 271.9368C341.664 292.6079 347.0978 311.9061 349.2836 319.0876A787.2268 787.2268 0 0 1 304.3809 411.4536L300.572 418.2603A259.5628 259.5628 0 0 0 277.9644 430.8755C264.3502 439.2439 247.3633 451.235 235.9972 464.9116 223.1949 480.3368 220.6343 491.9522 221.384 501.7575V502.5695C222.2583 510.0635 227.1917 515.9968 232.6246 519.9312A34.9727 34.9727 0 0 0 252.6724 526.4886H254.608C269.2836 525.4896 283.4605 515.2471 297.6989 499.0722 307.254 488.3935 318.995 470.4691 332.7962 446.1761A928.9618 928.9618 0 0 1 434.2802 422.4449C445.3338 428.3772 458.6355 434.4974 472.0628 439.2439 486.4267 444.3651 501.4771 448.1749 514.2802 448.1749A39.7029 39.7029 0 0 0 537.3249 441.9291 26.4174 26.4174 0 0 0 545.9426 432.3748 42.2643 42.2643 0 0 0 549.877 419.5717 37.4829 37.4829 0 0 0 549.9393 406.8941L543.5698 393.1552C534.0146 381.5389 516.0911 377.6668 493.6082 377.6668 480.9929 377.6668 466.0672 378.916 449.2682 381.4143A195.526 195.526 0 0 1 404.3032 333.951 140.5396 140.5396 0 0 1 393.2496 313.8417L393.6244 312.5926C394.4987 309.845 395.6224 305.7859 396.7469 300.727 399.0573 290.423 401.3678 275.6219 401.6179 257.3868 401.9304 234.9039 398.6825 216.6679 387.254 205.3017ZM357.0901 401.7729C363.96 388.6581 369.643 376.3554 373.6398 367.3006 379.8847 375.8559 386.9424 384.3497 394.2486 391.9684 380.946 395.0909 368.2069 398.5258 357.0901 401.7729" /></svg>