<svg xmlns="http://www.w3.org/2000/svg" fill="currentColor" viewBox="0 0 1024 1024"><path d="M539.6782 85.3333Q544.8038 85.3333 549.5566 86.4516A28.6664 28.6664 0 0 1 568.3815 93.9692L568.9407 94.4662 859.3287 372.6771C860.5713 373.8575 861.6275 375.1001 862.6215 376.4048 870.2633 384.4815 875.0472 395.2918 875.0472 407.2826V815.8388A122.888 122.888 0 0 1 752.0951 938.6666H271.8428A122.888 122.888 0 0 1 148.9528 815.8388V208.2233C148.9528 140.3791 203.9364 85.3955 271.8428 85.3955H539.6161ZM526.2585 143.4234H271.8428C236.4296 143.4234 207.602 171.816 207.0429 207.105V815.7767C207.0429 851.1899 235.4355 879.9553 270.7244 880.5145H752.1573C787.5704 880.5145 816.398 852.1218 816.9572 816.8329V420.6402H617.8978A91.5772 91.5772 0 0 1 526.3206 330.554V143.4234ZM487.2418 369.1358C471.0885 367.8932 456.1777 375.3486 448.7223 389.0169 426.356 426.2939 458.6628 499.4811 473.5736 529.2406 456.1777 582.6089 435.054 633.492 407.7797 683.1326 289.86 734.0157 287.3749 765.0178 287.3749 776.2009 287.3749 789.8692 294.8303 803.5374 308.4985 809.7502 313.4688 813.4779 320.9242 814.7205 327.137 814.7205 358.1391 814.7205 394.1114 779.9286 432.631 711.6495 481.029 691.7684 529.427 675.6772 580.3102 664.4941 606.4041 686.8603 638.7108 699.286 672.198 701.7711 693.3217 701.7711 734.2022 701.7711 734.2022 659.5238 735.4447 643.3704 726.7468 616.0961 668.4703 614.8535 642.3764 614.8535 616.2825 618.5812 590.2507 623.5515 559.1865 594.9724 533.1547 561.4852 513.2736 524.2703 534.3973 454.8108 535.6399 407.6554 519.4865 385.2892A41.1892 41.1892 0 0 0 487.1797 369.1358ZM369.3222 742.7137C359.3816 758.8671 345.7134 771.2306 328.3175 777.4435L324.5898 778.6861C335.7729 762.5327 350.6837 750.107 369.3222 742.6516ZM498.425 586.3366C512.0932 607.4602 529.4891 628.5218 548.0655 647.1603H544.3378L545.5804 648.4028C518.2439 654.6157 488.4223 663.3136 461.1479 673.1921V670.7069L458.6628 671.9495C472.331 644.613 484.7567 616.0961 495.9398 587.5792L497.1824 588.8217ZM667.2278 652.1305C692.0791 652.1305 697.0494 658.3434 697.0494 662.0711 689.594 664.5562 680.896 665.7988 672.198 664.5562 659.7724 663.3136 647.3467 660.8285 634.921 654.6157 646.1041 652.1305 656.0447 652.1305 667.2278 652.1305M489.727 406.4128C495.9398 427.5364 495.9398 449.8405 488.4844 470.9021 479.7864 451.021 476.0587 428.7169 481.029 407.5932 482.2716 406.3507 484.7567 406.3507 485.9993 406.3507H489.727ZM584.3485 189.709V329.0008C584.3485 347.5151 599.3836 362.5502 617.8978 362.5502H764.8315Z" /></svg>