<svg xmlns="http://www.w3.org/2000/svg" fill="currentColor" viewBox="0 0 1024 1024"><path d="M871.3743 224.8903V466.5054H938.6667V191.4074A33.8095 33.8095 0 0 0 904.9391 157.8836H651.662V224.9312H871.3753V224.8503ZM487.0907 579.3492A115.1999 115.1999 0 0 1 420.2869 552.2454C383.3088 560.372 348.0784 572.1158 312.8489 586.5406 284.8917 636.1977 258.6822 661.472 236.1298 661.472A23.5238 23.5238 0 0 1 222.5984 657.8558 26.619 26.619 0 0 1 207.2384 633.4748C207.2384 625.3472 209.026 602.7949 294.806 565.7768 314.6765 529.693 329.9965 492.634 342.6746 453.8273 331.825 432.1692 308.3374 378.8969 324.5917 351.834A28.7333 28.7333 0 0 1 352.5888 337.3674C361.6098 337.3674 370.6307 341.8788 376.0764 349.1521 387.7793 365.4064 386.885 399.6616 371.525 450.2521A272.2856 272.2856 0 0 0 427.5202 522.4597 304.7618 304.7618 0 0 1 484.4088 516.1206C526.8316 517.0558 533.1707 536.8854 532.2364 548.6292 532.2364 579.3492 502.4507 579.3492 487.1316 579.3492ZM234.3413 635.3025L237.0232 634.4082C249.6613 629.8977 259.6165 620.8368 266.8089 609.1329 253.2775 614.5377 242.4279 623.5587 234.3013 635.3025ZM354.3365 364.4712H351.6546C350.7203 364.4712 348.9317 364.4712 347.9974 365.3654 344.4212 380.7254 347.1441 396.9797 353.4422 411.4045 358.8469 396.0445 358.8469 379.8311 354.3365 364.4712M360.6755 495.3568L359.7812 497.1854 358.8469 496.2911C350.7203 517.0149 341.6993 537.8196 331.7841 557.6501L333.5717 556.7558V558.5844A525.7141 525.7141 0 0 1 395.0117 540.4606L394.1583 539.6482H396.8812A276.6665 276.6665 0 0 1 360.7165 495.3968ZM483.4335 543.2244C475.3069 543.2244 468.1145 543.2244 459.9869 545.012 469.0078 549.5225 478.0288 551.3511 487.0497 552.2454 493.3888 553.1396 499.6878 552.2454 505.1326 550.4577 505.1326 547.7349 501.4754 543.2244 483.4335 543.2244" /><path d="M598.6335 93.7217L114.347 153.8189A33.8476 33.8476 0 0 0 85.3337 186.9369V853.35A33.3238 33.3238 0 0 0 114.3061 886.549L481.524 924.5833V856.6005L152.7461 824.4176V215.9912L550.5211 168.1236V466.5463H617.8935V110.2998A16.66 16.66 0 0 0 598.6735 93.6398Z" /><path d="M815.0143 565.2482A182.8571 182.8571 0 0 1 842.321 811.2519L900.7134 880.4128A30.4762 30.4762 0 0 1 854.1458 919.7471L798.4353 853.7966A182.8571 182.8571 0 1 1 815.0143 565.2482M694.8573 581.1787A121.9047 121.9047 0 1 0 694.8573 824.9881 121.9047 121.9047 0 0 0 694.8573 581.1787" /><path d="M552.6345 682.6834A142.2218 142.2218 0 1 0 837.0791 682.6834 142.2218 142.2218 0 1 0 552.6345 682.6834" opacity=".2" /></svg>