<svg xmlns="http://www.w3.org/2000/svg" fill="currentColor" class="icon" viewBox="0 0 1024 1024">
  <path d="M155.85646381 402.96854669C140.33747249 402.96854669 128.00188819 390.6329624 128.00188819 375.11397108V320.99605175C128.00188819 214.74948874 214.74996529 128.00141165 320.99652828 128.00141165H394.2139465C409.73293782 128.00141165 422.06852213 140.33699594 422.06852213 155.85598726S409.73293782 183.71150611 394.21488974 183.71150611H320.99464182C245.38896091 183.71150611 183.71009619 245.3894276 183.71009619 320.99605175V375.11397108C183.71009619 390.6329624 171.37451189 402.96760347 155.85646381 402.96760347M372.32814115 895.99859098H320.99464182C214.74902205 895.99859098 128.00000172 809.25051388 128.00000172 703.00395089V623.81681917C128.00000172 608.29782786 140.33652926 595.96318679 155.85552057 595.96318679S183.71009619 608.29782786 183.71009619 623.81681917V703.00395089C183.71009619 778.61057503 245.38896091 840.28849651 320.99464182 840.28849651H372.32719791C387.84618923 840.28849651 400.18177353 852.62408082 400.18177353 868.14401536S387.84618923 895.99764774 372.32814115 895.99764774M703.00348419 895.99764774H640.92940538C625.41041407 895.99764774 613.07388654 883.66300668 613.07388654 868.14401536S625.41041407 840.28849651 640.92940538 840.28849651H703.00537065C778.6119948 840.28849651 840.28991629 778.61057503 840.28991629 703.00395089V611.87927866C840.28991629 596.36028734 852.62550058 584.02470304 868.1444919 584.02470304S896.00001075 596.36028734 896.00001075 611.87927866V703.00489411C896.00001075 809.25051388 809.25099042 895.99859098 703.00537065 895.99859098M868.1444919 414.90608721C852.62550058 414.90608721 840.29085952 402.57050291 840.29085952 387.0515116V320.99605175C840.29085952 245.3894276 778.6119948 183.71150611 703.00537065 183.71150611H621.0328757C605.51388439 183.71150611 593.17830009 171.37592182 593.17830009 155.85598726S605.51388439 128.00235488 621.0328757 128.00235488H703.00537065C809.25099042 128.00235488 896.00001075 214.74948874 896.00001075 320.99605175V387.05056836C896.00001075 402.57050291 883.66442645 414.90608721 868.1444919 414.90608721" />
</svg>
