<svg xmlns="http://www.w3.org/2000/svg" fill="currentColor" class="icon" viewBox="0 0 1024 1024">
  <path d="M768.32 794.89239014C710.656 846.92439014 645.184 878.92439014 571.968 890.89239014A381.44 381.44 0 0 1 356.672 863.88439014C286.4 831.88439014 230.912 784.52439014 190.144 721.93239014 149.376 659.27639014 128.64 589.32439014 128 512.01239014H191.616C192.256 579.34039014 210.688 639.62839014 246.784 692.94039014 282.944 746.25239014 332.16 785.22839014 394.496 809.86839014 456.768 833.86839014 519.296 838.54039014 581.888 823.88439014 644.608 809.16439014 698.752 777.22839014 744.448 727.88439014H652.032A30.91 30.91 0 0 1 620.16 696.46039014C620.16 687.50039014 623.168 679.94839014 629.12 673.93239014A34.7 34.7 0 0 1 652.032 663.94839014H800.128Q813.088 664.90839014 822.016 673.93239014A33.86 33.86 0 0 1 832 695.94839014V844.87639014A34.82 34.82 0 0 1 822.016 867.91639014 30.34 30.34 0 0 1 799.616 876.87639014 30.34 30.34 0 0 1 777.28 867.91639014 31.1 31.1 0 0 1 768.32 844.87639014V794.95639014ZM279.552 296.07639014H371.968A30.91 30.91 0 0 1 403.84 327.56439014C403.84 336.52439014 400.832 344.07639014 394.88 350.02839014A34.7 34.7 0 0 1 371.968 360.07639014H223.872A33.54 33.54 0 0 1 201.984 350.02839014 33.86 33.86 0 0 1 192 328.01239014V179.08439014A34.82 34.82 0 0 1 201.984 156.10839014 30.34 30.34 0 0 1 224.384 147.14839014C233.28 147.14839014 240.704 150.09239014 246.72 156.10839014 252.672 162.12439014 255.68 169.74039014 255.68 179.14839014V229.06839014C313.28 177.10039014 378.752 145.10039014 452.032 133.13239014 525.248 121.16439014 597.312 130.18839014 668.288 160.14039014 738.56 192.14039014 793.92 239.50039014 834.368 302.09239014 874.752 364.74839014 895.296 434.70039014 896 512.01239014H832.384C831.744 444.68439014 813.312 384.39639014 777.216 331.08439014 741.056 277.77239014 691.84 238.79639014 629.504 214.15639014 567.232 190.15639014 504.704 185.48439014 442.112 200.14039014 379.392 214.86039014 325.248 246.73239014 279.552 296.07639014" />
</svg>
