<svg xmlns="http://www.w3.org/2000/svg" fill="currentColor" class="icon" viewBox="0 0 1084 1024">
  <path d="M932.10314528 434.26599489C927.44700352 409.65980274 912.42090354 393.76162961 893.82430389 393.76162961 893.58615758 393.76162961 893.34462128 393.76332461 893.21410694 393.76840958H889.79022402C836.00814253 393.76840958 792.25363097 350.01389802 792.25363097 296.23181652 792.25363097 278.77848866 800.67265394 259.21150634 800.74553857 259.04200719 810.38241296 237.34781049 802.96851998 210.74322332 783.5151021 197.16973108L782.33708298 196.34088022 683.48941397 141.42908687 682.23935771 140.88160459C675.80093236 138.08232607 668.75485253 136.66361816 661.29349979 136.66361816 646.00382861 136.66361816 630.96671118 142.79948753 621.07558807 153.06859376 610.23357469 164.25977539 572.81239902 196.20358591 544.05686758 196.20358591 515.04284993 196.20358591 477.39878286 163.63262852 466.51100472 152.23381042 456.56733687 141.75622023 441.40987504 135.50000647 425.96680714 135.50000647 418.65122366 135.50000647 411.7322682 136.86955963 405.4031698 139.56798616L404.11921371 140.11292594 301.78409962 196.3256253 300.57641814 197.16464611C281.05859059 210.72457841 273.60232281 237.30543571 283.23072224 258.98946245 283.31547181 259.18438647 291.74720722 278.64458433 291.74720722 296.22927403 291.74720722 350.01135553 247.99269567 393.76586709 194.21061417 393.76586709H190.84097099Q190.48926025 393.75823963 190.14093949 393.75823963C171.56383223 393.75823963 156.55044468 409.65726025 151.89430293 434.26853738 151.55530462 436.07285588 143.57443696 478.85444229 143.57443696 512.31442275S151.55445712 588.55259963 151.89684542 590.36200309C156.55468216 614.96904275 171.57569717 630.86806337 190.16636435 630.86806337A22.88238577 22.88238577 0 0 0 190.78673126 630.85958841H194.21061417C247.99269567 630.85958841 291.74720722 674.61409997 291.74720722 728.39448647 291.74720722 745.86984923 283.32987924 765.41310166 283.25529962 765.58344831 273.6252052 787.26069509 281.01791079 813.86443477 300.46200621 827.47436932L301.61629545 828.27864281 398.57828637 882.5022696 399.81139272 883.0446669C406.24642809 885.87191278 413.27386301 887.30333313 420.69623095 887.30333313 436.20201354 887.30333313 451.34845792 880.90135009 461.21330867 870.17459615 474.98426742 855.20951586 512.34781339 824.30812513 539.94312312 824.30812513 569.82158645 824.30812513 608.13941265 858.94866719 619.19668995 871.07294166 629.0827281 881.9802122 644.33171946 888.49575968 659.99344127 888.49999715H659.99852625C667.27597241 888.49999715 674.17713046 887.11518907 680.51300883 884.38286271L681.77154005 883.83877043 782.28030076 828.28796527 783.46933732 827.45741941C802.95326505 813.88307968 810.38834543 787.30052739 800.7819809 765.6665029 800.69723132 765.46988388 792.25363097 745.74780984 792.25363097 728.39533397 792.25363097 674.61494746 836.00899002 630.86128341 889.78937653 630.86128341L893.11155995 630.85958841Q893.4420833 630.86721588 893.77345414 630.86721588C912.40310613 630.86552089 927.44700352 614.96650026 932.09721282 590.37471553 932.17857241 589.94079769 940.42555373 546.61003403 940.42555373 512.31188026 940.42555373 478.69850307 932.44299109 436.06607591 932.10314528 434.26599489M421.20303342 830.99740924L336.38311438 783.56900352C340.12057072 773.96941895 347.73786269 751.56247831 347.73786269 728.39702896 347.73786269 647.94849309 285.82829677 581.43787264 206.09589483 575.31980069 204.14834955 563.97352734 199.57017741 534.89425252 199.57017741 512.31442275 199.57017741 489.7676453 204.14665456 460.66040312 206.09250484 449.30565481 285.82914427 443.19266783 347.73786269 376.68204738 347.73786269 296.23096902 347.73786269 273.12399688 340.16209802 250.77977094 336.43226914 241.17764387L426.69056852 191.60422637H426.6956535C429.94834226 194.92895227 442.96502977 207.8439403 460.93787255 220.65129636 490.30444844 241.58444184 518.26926632 252.19932635 544.05602009 252.19932635 569.58852512 252.19932635 597.33129911 241.79123081 626.51227342 221.2623408 644.37155177 208.70075852 657.32637209 196.03408675 660.57228088 192.76614307L660.59007829 192.76190559 747.59738392 241.10136926C743.86247006 250.70264882 736.25958552 273.09433454 736.25958552 296.23096902 736.25958552 376.68374237 798.16745645 443.19436282 877.90324837 449.3073498 879.84909866 460.67904803 884.42896579 489.83629246 884.42896579 512.31527024 884.42896579 534.88577756 879.85164114 563.97606982 877.90494336 575.32658066 798.16999893 581.43702515 736.26043302 647.94849309 736.26043302 728.40126644 736.26043302 751.53196847 743.84806263 773.89144933 747.58128149 783.49103391L659.48409631 832.17712335C655.68392529 828.13965351 642.86046681 814.99414663 625.10966793 801.81134994 595.17526987 779.58238342 566.52059043 768.3106897 539.94227562 768.3106897 513.61905704 768.3106897 485.17964152 779.37220447 455.4172851 801.18250808 437.92242995 814.00681406 425.0133744 827.02434907 421.20388092 830.99740924M681.4003369 511.79660283C681.4003369 433.98208382 618.08986048 370.67584487 540.27279897 370.67584487 462.45743246 370.67584487 399.15119351 433.98208382 399.15119351 511.79660283 399.15119351 589.61196934 462.45743246 652.92075077 540.27279897 652.92075077 618.09155547 652.92075077 681.4003369 589.61281683 681.4003369 511.79745032M540.27279897 426.6741278C587.21389462 426.6741278 625.40374896 464.86228714 625.40374896 511.79999281 625.40374896 558.74108846 587.21389462 596.9309428 540.27279897 596.9309428 493.33424581 596.9309428 455.14693395 558.74108846 455.14693395 511.79999281 455.14693395 464.86059215 493.33424581 426.6741278 540.27279897 426.6741278" />
</svg>
