<svg xmlns="http://www.w3.org/2000/svg" fill="currentColor" class="icon" viewBox="0 0 1024 1024">
  <path d="M823.99833236 440.01172958C802.68818585 440.01172958 783.53790684 449.27467585 770.3384132 464.00874033H627.88636862L728.60737031 363.28864883A71.99558317 71.99558317 0 1 0 660.71671862 295.39799714L559.99571693 396.11899883V253.66604406A71.99558317 71.99558317 0 1 0 464.00312301 253.66604406V396.11899883L363.2830315 295.39799714A71.99558317 71.99558317 0 1 0 295.39237982 363.28864883L396.1133815 464.00965052H253.65860637A71.99558317 71.99558317 0 1 0 253.65860637 560.00224443H396.11247132L295.39146963 660.72233594A71.99558317 71.99558317 0 1 0 363.28212132 728.61298763L464.00312301 627.89198594V770.34585089A71.99558317 71.99558317 0 1 0 559.99571693 770.3221861V627.86832115L660.71580843 728.58932283A71.99558317 71.99558317 0 1 0 728.60646012 660.69867115L627.88545843 559.97766946H770.33932338A71.99558317 71.99558317 0 1 0 823.97375738 439.98806479Z" />
</svg>
